<svg width="30" height="30" viewBox="0 0 30 30" fill="none" xmlns="http://www.w3.org/2000/svg">
<path d="M14.9998 2.8125C12.5432 2.8125 10.1873 3.78837 8.45023 5.52542C6.71317 7.26248 5.7373 9.61843 5.7373 12.075V12.75C6.1123 17.825 10.3248 21.9063 14.9998 27.1875C19.8811 21.675 24.2623 17.5 24.2623 12.075C24.2623 9.61843 23.2864 7.26248 21.5494 5.52542C19.8123 3.78837 17.4564 2.8125 14.9998 2.8125ZM14.9998 7.625C15.8814 7.625 16.7433 7.88651 17.4762 8.37645C18.2092 8.86639 18.7803 9.56273 19.1174 10.3774C19.4545 11.192 19.5424 12.0883 19.37 12.9529C19.1975 13.8175 18.7725 14.6115 18.1486 15.2345C17.5248 15.8575 16.7302 16.2814 15.8653 16.4526C15.0005 16.6239 14.1043 16.5347 13.2901 16.1965C12.476 15.8583 11.7804 15.2861 11.2915 14.5525C10.8026 13.8188 10.5423 12.9566 10.5436 12.075C10.5452 10.8942 11.0154 9.76235 11.851 8.92799C12.6865 8.09364 13.819 7.625 14.9998 7.625Z" stroke="#161F6E" stroke-linecap="round" stroke-linejoin="round"/>
</svg>
