<svg width="60" height="60" viewBox="0 0 60 60" fill="none" xmlns="http://www.w3.org/2000/svg">
<path d="M30 3.75C24.8083 3.75 19.7331 5.28954 15.4163 8.17392C11.0995 11.0583 7.73497 15.158 5.74817 19.9546C3.76137 24.7511 3.24154 30.0291 4.2544 35.1211C5.26726 40.2131 7.76733 44.8904 11.4385 48.5616C15.1096 52.2327 19.7869 54.7327 24.8789 55.7456C29.9709 56.7585 35.2489 56.2386 40.0455 54.2518C44.842 52.265 48.9417 48.9005 51.8261 44.5837C54.7105 40.2669 56.25 35.1918 56.25 30C56.25 23.0381 53.4844 16.3613 48.5616 11.4384C43.6387 6.51562 36.9619 3.75 30 3.75ZM43.9631 31.6781L21.4631 42.9281C21.1772 43.071 20.8595 43.1384 20.5402 43.124C20.2209 43.1095 19.9105 43.0136 19.6387 42.8455C19.3669 42.6774 19.1425 42.4425 18.987 42.1633C18.8314 41.884 18.7499 41.5696 18.75 41.25V18.75C18.7502 18.4305 18.832 18.1164 18.9877 17.8374C19.1433 17.5584 19.3677 17.3238 19.6395 17.1559C19.9113 16.988 20.2215 16.8923 20.5406 16.8779C20.8598 16.8635 21.1773 16.9309 21.4631 17.0737L43.9631 28.3237C44.2742 28.4796 44.5357 28.719 44.7184 29.015C44.9012 29.3111 44.998 29.6521 44.998 30C44.998 30.3479 44.9012 30.689 44.7184 30.985C44.5357 31.281 44.2742 31.5204 43.9631 31.6762" fill="white" fill-opacity="0.68"/>
</svg>
