<svg width="30" height="30" viewBox="0 0 30 30" fill="none" xmlns="http://www.w3.org/2000/svg">
<path d="M3.98499 15C3.98499 14.8135 4.05907 14.6346 4.19093 14.5028C4.32279 14.3709 4.50164 14.2968 4.68812 14.2968L23.6151 14.2968L16.3787 7.05934C16.3097 6.99496 16.2543 6.91734 16.2158 6.83109C16.1774 6.74484 16.1567 6.65173 16.1551 6.55732C16.1534 6.46292 16.1708 6.36914 16.2061 6.28159C16.2415 6.19404 16.2941 6.1145 16.3609 6.04774C16.4277 5.98097 16.5072 5.92833 16.5947 5.89297C16.6823 5.85761 16.7761 5.84024 16.8705 5.84191C16.9649 5.84357 17.058 5.86423 17.1442 5.90266C17.2305 5.9411 17.3081 5.9965 17.3725 6.06558L25.81 14.5031C25.9417 14.6349 26.0156 14.8136 26.0156 15C26.0156 15.1863 25.9417 15.365 25.81 15.4968L17.3725 23.9343C17.2392 24.0585 17.0629 24.1262 16.8808 24.1229C16.6986 24.1197 16.5248 24.0459 16.396 23.9171C16.2671 23.7883 16.1934 23.6145 16.1901 23.4323C16.1869 23.2502 16.2545 23.0739 16.3787 22.9406L23.6151 15.7031L4.68812 15.7031C4.50164 15.7031 4.32279 15.629 4.19093 15.4971C4.05907 15.3653 3.98499 15.1864 3.98499 15Z" fill="white"/>
</svg>
