<svg width="30" height="30" viewBox="0 0 30 30" fill="none" xmlns="http://www.w3.org/2000/svg">
<path d="M15 3.04688C12.6359 3.04687 10.3249 3.74791 8.3592 5.06134C6.39352 6.37477 4.86146 8.24159 3.95676 10.4257C3.05205 12.6099 2.81534 15.0133 3.27656 17.3319C3.73777 19.6506 4.87619 21.7805 6.54787 23.4521C8.21954 25.1238 10.3494 26.2622 12.6681 26.7234C14.9867 27.1847 17.3901 26.948 19.5743 26.0432C21.7584 25.1385 23.6252 23.6065 24.9387 21.6408C26.2521 19.6751 26.9531 17.3641 26.9531 15C26.9494 11.831 25.6889 8.79281 23.448 6.55198C21.2072 4.31114 18.169 3.0506 15 3.04688ZM15 25.5469C12.914 25.5469 10.8749 24.9283 9.14048 23.7694C7.40605 22.6105 6.05423 20.9633 5.25596 19.0361C4.4577 17.1089 4.24883 14.9883 4.65579 12.9424C5.06274 10.8965 6.06723 9.01724 7.54224 7.54223C9.01725 6.06723 10.8965 5.06273 12.9424 4.65578C14.9883 4.24883 17.1089 4.45769 19.0361 5.25596C20.9633 6.05423 22.6105 7.40605 23.7694 9.14047C24.9283 10.8749 25.5469 12.914 25.5469 15C25.5438 17.7963 24.4316 20.4771 22.4543 22.4543C20.4771 24.4316 17.7963 25.5438 15 25.5469ZM22.2656 15C22.2656 15.1865 22.1916 15.3653 22.0597 15.4972C21.9278 15.629 21.749 15.7031 21.5625 15.7031H15C14.8135 15.7031 14.6347 15.629 14.5028 15.4972C14.371 15.3653 14.2969 15.1865 14.2969 15V8.4375C14.2969 8.25102 14.371 8.07218 14.5028 7.94032C14.6347 7.80845 14.8135 7.73438 15 7.73438C15.1865 7.73438 15.3653 7.80845 15.4972 7.94032C15.6291 8.07218 15.7031 8.25102 15.7031 8.4375V14.2969H21.5625C21.749 14.2969 21.9278 14.371 22.0597 14.5028C22.1916 14.6347 22.2656 14.8135 22.2656 15Z" fill="#161F6E"/>
</svg>
