<svg width="53" height="53" viewBox="0 0 53 53" fill="none" xmlns="http://www.w3.org/2000/svg">
<path d="M26.25 0C21.0583 0 15.9831 1.53954 11.6663 4.42392C7.3495 7.30831 3.98497 11.408 1.99817 16.2046C0.0113737 21.0011 -0.508464 26.2791 0.504398 31.3711C1.51726 36.4631 4.01733 41.1404 7.68846 44.8116C11.3596 48.4827 16.0369 50.9827 21.1289 51.9956C26.2209 53.0085 31.4989 52.4886 36.2955 50.5018C41.092 48.515 45.1917 45.1505 48.0761 40.8337C50.9605 36.5169 52.5 31.4418 52.5 26.25C52.5 19.2881 49.7344 12.6113 44.8116 7.68845C39.8887 2.76562 33.2119 0 26.25 0ZM40.2131 27.9281L17.7131 39.1781C17.4272 39.321 17.1095 39.3884 16.7902 39.374C16.4709 39.3595 16.1605 39.2636 15.8887 39.0955C15.6169 38.9274 15.3925 38.6925 15.237 38.4133C15.0814 38.134 14.9999 37.8196 15 37.5V15C15.0002 14.6805 15.082 14.3664 15.2377 14.0874C15.3933 13.8084 15.6177 13.5738 15.8895 13.4059C16.1613 13.238 16.4715 13.1423 16.7906 13.1279C17.1098 13.1135 17.4273 13.1809 17.7131 13.3237L40.2131 24.5737C40.5242 24.7296 40.7857 24.969 40.9684 25.265C41.1512 25.5611 41.248 25.9021 41.248 26.25C41.248 26.5979 41.1512 26.939 40.9684 27.235C40.7857 27.531 40.5242 27.7704 40.2131 27.9262" fill="white" fill-opacity="0.68"/>
</svg>
